<svg width="800" height="450" xmlns="http://www.w3.org/2000/svg">
  <defs>
    <linearGradient id="bg-gradient" x1="0%" y1="0%" x2="100%" y2="100%">
      <stop offset="0%" stopColor="#10B981" stopOpacity="0.1"/>
      <stop offset="100%" stopColor="#34D399" stopOpacity="0.1"/>
    </linearGradient>
    <linearGradient id="icon-gradient" x1="0%" y1="0%" x2="100%" y2="100%">
      <stop offset="0%" stopColor="#10B981"/>
      <stop offset="100%" stopColor="#34D399"/>
    </linearGradient>
  </defs>
  
  <!-- 背景 -->
  <rect width="800" height="450" fill="#ffffff"/>
  <rect width="800" height="450" fill="url(#bg-gradient)"/>
  
  <!-- 主要圖示：燈泡和教案圖標 -->
  <g transform="translate(350, 175)">
    <circle cx="50" cy="50" r="40" fill="url(#icon-gradient)" opacity="0.1"/>
    <!-- 燈泡圖標 -->
    <path d="M12 2a7 7 0 0 1 7 7c0 2.38-1.19 4.47-3 5.74V17a2 2 0 0 1-2 2H8a2 2 0 0 1-2-2v-2.26C4.19 13.47 3 11.38 3 9a7 7 0 0 1 7-7" 
          transform="translate(30, 30)" 
          stroke="url(#icon-gradient)" 
          strokeWidth="2" 
          fill="none"/>
    <!-- 文件圖標 -->
    <path d="M14 2H6a2 2 0 0 0-2 2v16c0 1.1.9 2 2 2h12a2 2 0 0 0 2-2V8l-6-6z" 
          transform="translate(60, 20)" 
          stroke="url(#icon-gradient)" 
          strokeWidth="2" 
          fill="none"/>
  </g>
  
  <!-- 裝飾元素 -->
  <circle cx="200" cy="100" r="5" fill="#10B981" opacity="0.5"/>
  <circle cx="600" cy="350" r="5" fill="#34D399" opacity="0.5"/>
  <circle cx="150" cy="400" r="3" fill="#10B981" opacity="0.3"/>
  <circle cx="650" cy="50" r="3" fill="#34D399" opacity="0.3"/>
</svg>
