<svg width="800" height="450" xmlns="http://www.w3.org/2000/svg">
  <defs>
    <linearGradient id="bg-gradient" x1="0%" y1="0%" x2="100%" y2="100%">
      <stop offset="0%" stopColor="#059669" stopOpacity="0.1"/>
      <stop offset="100%" stopColor="#10B981" stopOpacity="0.1"/>
    </linearGradient>
    <linearGradient id="icon-gradient" x1="0%" y1="0%" x2="100%" y2="100%">
      <stop offset="0%" stopColor="#059669"/>
      <stop offset="100%" stopColor="#10B981"/>
    </linearGradient>
  </defs>
  
  <!-- 背景 -->
  <rect width="800" height="450" fill="#ffffff"/>
  <rect width="800" height="450" fill="url(#bg-gradient)"/>
  
  <!-- 主要圖示 -->
  <g transform="translate(350, 175)">
    <circle cx="50" cy="50" r="40" fill="url(#icon-gradient)" opacity="0.1"/>
    <path d="M15.5 2H8.6c-.4 0-.8.2-1.1.5-.3.3-.5.7-.5 1.1v12.8c0 .4.2.8.5 1.1.3.3.7.5 1.1.5h9.8c.4 0 .8-.2 1.1-.5.3-.3.5-.7.5-1.1V6.5L15.5 2z" transform="translate(30, 30)" stroke="url(#icon-gradient)" strokeWidth="2" fill="none"/>
    <path d="M2 3h6a4 4 0 0 1 4 4v14a3 3 0 0 0-3-3H2z" transform="translate(60, 20)" stroke="url(#icon-gradient)" strokeWidth="2" fill="none"/>
  </g>
  
  <!-- 裝飾元素 -->
  <circle cx="200" cy="100" r="5" fill="#059669" opacity="0.5"/>
  <circle cx="600" cy="350" r="5" fill="#10B981" opacity="0.5"/>
  <circle cx="150" cy="400" r="3" fill="#059669" opacity="0.3"/>
  <circle cx="650" cy="50" r="3" fill="#10B981" opacity="0.3"/>
</svg>
